<svg width="250" height="250" xmlns="http://www.w3.org/2000/svg" xmlns:svg="http://www.w3.org/2000/svg" version="1.1" xml:space="preserve"><path d="m83.25051,179.992c-20.6,15.5 -43.4,21.6 -68.7,19.8c7.6,4.2 15.2,8.4 23.1,11.5c24,9.5 48.9,11.4 74.3,6.9c31.8,-5.7 58,-21.1 78.1,-46.4c20.8,-26.2 31.1,-56.3 30.5,-89.9c0,-1.4 0.4,-2.3 1.5,-3.2c3.6,-3 7.3,-5.8 10.5,-9.2c4,-4.2 7.6,-8.8 11.3,-13.2c-0.2,-0.2 -0.3,-0.4 -0.5,-0.6c-8.1,3.2 -16.4,5.8 -25.2,6.7c9.1,-6.3 15.8,-14.5 19.4,-25.5c-0.9,0.4 -1.3,0.6 -1.8,0.9c-8,4.5 -16.5,7.7 -25.4,9.8c-1.9,0.5 -3.2,0.2 -4.7,-1.2c-8.2,-7.9 -18,-12.2 -29.3,-13c-13.8,-0.9 -25.8,3.5 -35.8,13c-8.7,8.3 -13.6,18.5 -14.3,30.5c-0.3,4.7 0.2,9.4 0.3,14.3c-39,-2.6 -71.2,-19.2 -96.9,-49.6c-11.5,24.8 -6.8,45.6 13.8,63.1c-7.2,-0.2 -13.8,-2.4 -20.4,-5.6c0.1,11.4 3.4,21.2 10.2,29.9c6.9,8.6 15.7,14.2 27.1,17c-7.2,1.7 -13.8,1.9 -21,0.7c8,20.3 22.3,31.3 43.9,33.3z" fill="#ffffff" /></svg>