<svg width="250" height="250" xmlns="http://www.w3.org/2000/svg" xmlns:svg="http://www.w3.org/2000/svg" version="1.1" xml:space="preserve"><path d="m5.75051,218.29171c8.5,-10.2 17,-20.5 25.4,-30.7c2.1,-2.5 2.9,-5.5 2.6,-8.8c-0.1,-1.1 -0.2,-2.3 -0.2,-3.5c0,-34 0,-68 0,-102c0,-2.6 -0.9,-4.7 -2.6,-6.7c-7.2,-8.6 -14.4,-17.2 -21.5,-25.9c-0.9,-1.1 -0.9,-3 -1.5,-5c1.4,-0.1 2.2,-0.1 3,-0.1c21.2,0 42.5,0 63.7,-0.1c1.8,0 2.6,0.6 3.4,2.2c16.9,37 33.8,74 50.7,111c0.3,0.8 0.7,1.5 1.2,2.6c2.4,-6 4.8,-11.7 7.1,-17.5c12.9,-32.1 25.8,-64.2 38.7,-96.3c0.5,-1.2 0.9,-2 2.5,-2c20.7,0.1 41.4,0 62.1,0c0.4,0 0.9,0.1 1.3,0.1c0.5,2.4 0.2,4.2 -1.8,6c-5.7,5.2 -11.2,10.7 -16.9,16c-1.5,1.4 -2,2.9 -2,4.9c0,44.4 0,88.8 0,133.1c0,2 0.6,3.5 2,4.9c5.4,5.2 10.7,10.6 16.2,15.7c1.9,1.8 2.6,3.6 2,6.2c-30.7,0 -61.5,0 -92.4,0c-0.5,-2.3 -0.2,-4.1 1.7,-5.8c5.4,-5 10.6,-10.3 16,-15.3c2.3,-2.1 3.2,-4.4 3.1,-7.5c-0.1,-25.7 0,-51.4 0,-77.1c0,-8.4 0,-16.8 0,-25.2c0,-0.7 -0.1,-1.4 -0.5,-2.1c-0.3,0.7 -0.6,1.3 -0.9,2c-16.8,42.7 -33.7,85.3 -50.5,128c-0.9,2.2 -1.9,2.6 -4.1,2.8c-3.5,0.3 -4.9,-1.2 -6.2,-4.1c-19.3,-42.2 -38.7,-84.4 -58,-126.5c-0.4,-0.9 -0.8,-1.8 -1.7,-2.6c0,0.8 0,1.6 0,2.3c0,28 0,56 0,84c0,1.7 -0.5,3.5 0,5c0.7,2.5 1.6,5.2 3.2,7.2c7.7,9.6 15.6,19.1 23.5,28.5c1.5,1.8 2,3.5 1.4,6.1c-23.3,0 -46.8,0 -70.2,0c0.2,-1 0.2,-2.4 0.2,-3.8z" fill="#ffffff" /></svg>