<svg width="250" height="250" xmlns="http://www.w3.org/2000/svg" xmlns:svg="http://www.w3.org/2000/svg" version="1.1" xml:space="preserve"><path d="m238.95051,50.69171c-1.2,5.2 -2.5,10.4 -3.6,15.7c-6.3,28.4 -12.5,56.7 -18.8,85.1c-4.3,19.5 -8.6,39 -13,58.4c-0.6,2.5 -1.4,5.1 -2.7,7.4c-2.4,4.4 -6.5,6.1 -11.4,4.7c-2.3,-0.7 -4.7,-1.7 -6.7,-3c-16.8,-11.8 -33.5,-23.6 -50.2,-35.5c-0.5,-0.4 -1.1,-0.8 -1.8,-1.2c-0.5,0.4 -1,0.8 -1.5,1.2c-8.6,7.9 -17.3,15.9 -25.9,23.9c-2.5,2.3 -5.4,3.7 -9.2,3.5c0.3,-4.6 0.6,-9 0.9,-13.5c0.7,-9.2 1.4,-18.5 2.1,-27.7c0.1,-1.4 0.5,-2.8 0.3,-4.1c-0.9,-5.7 2.7,-8.8 6.6,-12.1c30.6,-26.4 61.1,-53 91.7,-79.5c0.6,-0.5 1.3,-1 1.8,-1.7c0.4,-0.6 0.8,-1.6 0.6,-2.1c-0.3,-0.5 -1.4,-1.1 -2,-0.9c-2.1,0.5 -4.3,1 -6.1,2.1c-26.7,16 -53.3,32.2 -80,48.3c-13.4,8.1 -26.8,16.3 -40.3,24.3c-0.9,0.5 -2.3,0.8 -3.3,0.5c-17.1,-5 -34.1,-10.1 -51.1,-15.3c-2,-0.6 -4.1,-1.6 -5.8,-2.8c-3.2,-2.2 -3.6,-5.4 -0.8,-8c2.2,-2 4.9,-3.8 7.7,-4.8c13.3,-5.1 26.8,-10 40.2,-15c54.9,-20.3 109.8,-40.6 164.7,-60.9c2.5,-0.9 5.2,-1.6 7.8,-1.7c4.6,-0.1 7.7,2.5 9.1,6.8c0.2,0.5 0.4,1.1 0.6,1.6c0.1,2 0.1,4.1 0.1,6.3z" fill="#ffffff" /></svg>