<svg width="250" height="250" xmlns="http://www.w3.org/2000/svg" xmlns:svg="http://www.w3.org/2000/svg" version="1.1" xml:space="preserve"><path d="m239.751,174.39202c-3.8,-34.9 -10.6,-69 -26.2,-100.9c-3.8,-7.8 -9.3,-13.6 -16,-18.7c-10.7,-8.1 -27.9,-17.3 -39.6,-21c-1.5,4.2 -3.1,8.4 -4.7,12.7c11.8,4.5 22.9,9.9 33.1,17c0.4,0.2 0.7,0.5 1,1c-41.6,-11.8 -83.1,-11.8 -124.7,0.2c-0.1,-0.2 -0.2,-0.5 -0.3,-0.8c5.5,-3.2 10.8,-6.6 16.5,-9.5c5.7,-2.9 11.6,-5.4 17.7,-8.2c-1.5,-4 -3,-8.1 -4.6,-12.7c-4.1,1.7 -8.1,3.3 -12.1,5.1c-11.8,5.3 -22.8,12.1 -32.8,20.4c-6.2,5.1 -9.5,11.9 -12.7,18.8c-9.5,20.7 -16.1,42.2 -19.6,64.7c-2.3,14.6 -3.9,29.3 -5.9,44c-0.3,1.9 0.2,3.5 1.4,5c10.1,13.5 23.6,21.8 39.6,26.4c8.5,2.5 17.3,3.7 26.1,3.6c0.8,0 2,-0.4 2.4,-1.1c3.8,-5.4 7.5,-10.8 11.2,-16.2c0.2,-0.2 0.2,-0.5 0.5,-1c-14.2,-3.9 -27.4,-9.7 -39.7,-18c2.5,-3.8 4.9,-7.4 7.3,-10.9c44.9,26.7 89.6,26.8 134.6,0c2.3,3.4 4.7,7 7.3,10.9c-12.2,8.2 -25.4,14.1 -39.7,18c0.3,0.6 0.6,1.2 0.9,1.6c3.5,5.1 7,10.2 10.6,15.3c0.5,0.7 1.5,1.4 2.2,1.4c20.6,-0.2 39.6,-5.3 55.6,-18.9c4,-3.4 7.2,-7.7 10.8,-11.5c0.4,-0.4 0.8,-0.8 1.2,-1.2l0,-4.1c-0.5,-3.8 -0.9,-7.6 -1.4,-11.4zm-146.5,-25.3l-13.1,0l0,-22.2l13.1,0l0,22.2zm76.6,0l-13.1,0l0,-22.2l13.1,0l0,22.2z" fill="#ffffff" /></svg>